<?xml version="1.0" encoding="UTF-8" standalone="no"?>
<svg
   xmlns:dc="http://purl.org/dc/elements/1.1/"
   xmlns:cc="http://creativecommons.org/ns#"
   xmlns:rdf="http://www.w3.org/1999/02/22-rdf-syntax-ns#"
   xmlns:svg="http://www.w3.org/2000/svg"
   xmlns="http://www.w3.org/2000/svg"
   xmlns:sodipodi="http://sodipodi.sourceforge.net/DTD/sodipodi-0.dtd"
   xmlns:inkscape="http://www.inkscape.org/namespaces/inkscape"
   fill="none"
   stroke-linecap="square"
   stroke-miterlimit="10"
   viewBox="0 0 348 348"
   version="1.1"
   id="svg50"
   sodipodi:docname="Button Masher2.svg"
   inkscape:version="0.92.1 r15371">
  <metadata
     id="metadata56">
    <rdf:RDF>
      <cc:Work
         rdf:about="">
        <dc:format>image/svg+xml</dc:format>
        <dc:type
           rdf:resource="http://purl.org/dc/dcmitype/StillImage" />
        <dc:title></dc:title>
      </cc:Work>
    </rdf:RDF>
  </metadata>
  <defs
     id="defs54" />
  <sodipodi:namedview
     pagecolor="#ffffff"
     bordercolor="#666666"
     borderopacity="1"
     objecttolerance="10"
     gridtolerance="10"
     guidetolerance="10"
     inkscape:pageopacity="0"
     inkscape:pageshadow="2"
     inkscape:window-width="1920"
     inkscape:window-height="1057"
     id="namedview52"
     showgrid="false"
     inkscape:zoom="0.67816092"
     inkscape:cx="174"
     inkscape:cy="174"
     inkscape:window-x="-8"
     inkscape:window-y="-8"
     inkscape:window-maximized="1"
     inkscape:current-layer="svg50" />
  <path
     stroke="#000"
     stroke-linecap="butt"
     stroke-linejoin="round"
     stroke-width="2"
     d="M5.5 5.2h337v337.6H5.5z"
     id="path2" />
  <path
     fill="#000"
     d="M134.3 15h74.3v57h-74.3z"
     id="path4" />
  <path
     fill="#fff"
     d="M155 43.5c0-2.7.3-5 .8-6.6a8.7 8.7 0 0 1 2.5-3.8 6.4 6.4 0 0 1 4.2-1.3c1.2 0 2.3.2 3.2.7 1 .5 1.7 1.2 2.3 2.2.6.9 1 2 1.4 3.4.4 1.3.5 3.1.5 5.4a21 21 0 0 1-.8 6.5c-.5 1.6-1.4 3-2.5 3.8-1 1-2.5 1.4-4.1 1.4-2.2 0-4-.8-5.2-2.4-1.5-2-2.3-5-2.3-9.3zm2.9 0c0 3.7.4 6.2 1.3 7.5.9 1.2 2 1.9 3.3 1.9 1.3 0 2.3-.7 3.2-2 1-1.2 1.4-3.7 1.4-7.4 0-3.8-.5-6.3-1.4-7.5-.9-1.3-2-1.9-3.3-1.9-1.3 0-2.3.5-3 1.6-1 1.4-1.5 4-1.5 7.8zm14.9 0c0-2.7.3-5 .8-6.6a8.7 8.7 0 0 1 2.5-3.8 6.4 6.4 0 0 1 4.2-1.3c1.2 0 2.3.2 3.2.7 1 .5 1.7 1.2 2.3 2.2.6.9 1 2 1.4 3.4.4 1.3.5 3.1.5 5.4 0 2.7-.2 4.8-.8 6.5-.5 1.6-1.4 3-2.5 3.8-1 1-2.5 1.4-4.1 1.4-2.2 0-4-.8-5.2-2.4-1.5-2-2.3-5-2.3-9.3zm2.9 0c0 3.7.4 6.2 1.3 7.5.9 1.2 2 1.9 3.3 1.9 1.3 0 2.3-.7 3.2-2 .9-1.2 1.3-3.7 1.3-7.4 0-3.8-.4-6.3-1.3-7.5-.9-1.3-2-1.9-3.3-1.9-1.3 0-2.3.5-3 1.6-1 1.4-1.5 4-1.5 7.8z"
     id="path6" />
  <path
     stroke="#000"
     stroke-linecap="butt"
     stroke-linejoin="round"
     stroke-width="2"
     d="M15.7 17h110v55h-110z"
     id="path8" />
  <path
     d="M15.7 72l39.7-54"
     id="path10" />
  <path
     stroke="#000"
     stroke-linecap="butt"
     stroke-linejoin="round"
     stroke-width="2"
     d="M15.7 72l39.7-54"
     id="path12" />
  <path
     d="M38 72l39.7-54"
     id="path14" />
  <path
     stroke="#000"
     stroke-linecap="butt"
     stroke-linejoin="round"
     stroke-width="2"
     d="M38 72l39.7-54"
     id="path16" />
  <path
     d="M60.3 72L100 18"
     id="path18" />
  <path
     stroke="#000"
     stroke-linecap="butt"
     stroke-linejoin="round"
     stroke-width="2"
     d="M60.3 72L100 18"
     id="path20" />
  <path
     d="M82.6 72l39.7-54"
     id="path22" />
  <path
     stroke="#000"
     stroke-linecap="butt"
     stroke-linejoin="round"
     stroke-width="2"
     d="M82.6 72l39.7-54m95-2h110v55h-110z"
     id="path24" />
  <path
     d="M217.3 71L257 16.9"
     id="path26" />
  <path
     stroke="#000"
     stroke-linecap="butt"
     stroke-linejoin="round"
     stroke-width="2"
     d="M217.3 71L257 16.9"
     id="path28" />
  <path
     d="M239.6 71l39.7-54.1"
     id="path30" />
  <path
     stroke="#000"
     stroke-linecap="butt"
     stroke-linejoin="round"
     stroke-width="2"
     d="M239.6 71l39.7-54.1"
     id="path32" />
  <path
     d="M262 71l39.6-54.1"
     id="path34" />
  <path
     stroke="#000"
     stroke-linecap="butt"
     stroke-linejoin="round"
     stroke-width="2"
     d="M262 71l39.6-54.1"
     id="path36" />
  <path
     d="M284.2 71L324 16.9"
     id="path38" />
  <path
     stroke="#000"
     stroke-linecap="butt"
     stroke-linejoin="round"
     stroke-width="2"
     d="M284.2 71L324 16.9"
     id="path40" />
  <path
     stroke="#fff"
     stroke-width="3"
     d="M242.5 230.5h30m15 0h30"
     id="path46" />
  <ellipse
     style="opacity:1;fill:#000003;fill-opacity:1;stroke:#000000;stroke-width:1;stroke-opacity:1"
     id="path4533"
     cx="171.68643"
     cy="198.29662"
     rx="139.34744"
     ry="53.822033" />
  <text
     xml:space="preserve"
     style="font-style:normal;font-variant:normal;font-weight:normal;font-stretch:normal;font-size:85.33333588px;line-height:1.25;font-family:Arial;-inkscape-font-specification:Arial;letter-spacing:0px;word-spacing:0px;fill:#ffffff;fill-opacity:1;stroke:none"
     x="143.35593"
     y="229.71187"
     id="text4537"><tspan
       sodipodi:role="line"
       id="tspan4535"
       x="143.35593"
       y="229.71187">F</tspan></text>
</svg>
